<?xml version="1.0" encoding="UTF-8" standalone="no"?>
<!-- Generated by IcoMoon.io -->

<svg
   xmlns:dc="http://purl.org/dc/elements/1.1/"
   xmlns:cc="http://creativecommons.org/ns#"
   xmlns:rdf="http://www.w3.org/1999/02/22-rdf-syntax-ns#"
   xmlns:svg="http://www.w3.org/2000/svg"
   xmlns="http://www.w3.org/2000/svg"
   xmlns:sodipodi="http://sodipodi.sourceforge.net/DTD/sodipodi-0.dtd"
   xmlns:inkscape="http://www.inkscape.org/namespaces/inkscape"
   version="1.1"
   width="536"
   height="500"
   viewBox="0 0 536 500"
   id="svg2"
   inkscape:version="0.48.4 r9939"
   sodipodi:docname="folder-open-white.svg">
  <metadata
     id="metadata10">
    <rdf:RDF>
      <cc:Work
         rdf:about="">
        <dc:format>image/svg+xml</dc:format>
        <dc:type
           rdf:resource="http://purl.org/dc/dcmitype/StillImage" />
      </cc:Work>
    </rdf:RDF>
  </metadata>
  <defs
     id="defs8" />
  <sodipodi:namedview
     pagecolor="#ffffff"
     bordercolor="#666666"
     borderopacity="1"
     objecttolerance="10"
     gridtolerance="10"
     guidetolerance="10"
     inkscape:pageopacity="0"
     inkscape:pageshadow="2"
     inkscape:window-width="799"
     inkscape:window-height="480"
     id="namedview6"
     showgrid="false"
     inkscape:zoom="0.472"
     inkscape:cx="268"
     inkscape:cy="250"
     inkscape:window-x="0"
     inkscape:window-y="0"
     inkscape:window-maximized="0"
     inkscape:current-layer="svg2" />
  <path
     d="M524.274 265.625q0 8.649-8.649 18.415l-93.75 110.491q-11.998 14.23-33.622 24.135t-40.039 9.905h-303.571q-9.487 0-16.88-3.627t-7.394-11.998q0-8.649 8.649-18.415l93.75-110.491q11.998-14.23 33.622-24.135t40.039-9.905h303.571q9.487 0 16.88 3.627t7.394 11.998zM428.571 169.643v44.643h-232.143q-26.228 0-54.966 13.253t-45.759 33.343l-95.424 112.165q0-1.116-0.14-3.488t-0.14-3.488v-267.857q0-25.669 18.415-44.085t44.085-18.415h89.286q25.669 0 44.085 18.415t18.415 44.085v8.929h151.786q25.669 0 44.085 18.415t18.415 44.085z"
     fill="#000000"
     id="path4"
     style="fill:#ffffff;fill-opacity:1" />
</svg>
